# xmcd
# 
# Track frame offsets:
#     150
#     25075
#     127375
#     280293
# 
# Disc length: 4191
# 
# Revision: 20
# Processed by: cddbd v1.5.2PL0 Copyright (c) Steve Scherf et al.
# Submitted via: fre:ac v1.0.17
# 
DISCID=38105d04
DTITLE=The Allman Brothers Band - The Fillmore Concerts - CD2
DYEAR=1992
DGENRE=Southern Rock
TTITLE0=Hot 'Lanta
TTITLE1=Whipping Post
TTITLE2=Mountain Jam
TTITLE3=Drunken Hearted Boy
EXTD=Duane Allman: lead and slide guitars\nGregg Allman: organ, piano, vocal\nDickey Betts: lead guitar\nBerry Oakley: bass guitar\nJaimoe: drums, congas, timbales\nButch Trucks: drums, tympani\nThom Doucette [CD1:tracks 3,6-8): harmonica\nRudolf "Juicy"
EXTD=Carter (2:1): sax\nElvin Bishop (2:4): guitar, vocals\nSteve Miller (2:4): piano\nBobby Caldwell (2:4): percussion\nRecorded live at the Fillmore East, New York US-NY, 1971-03-12/13 and 1971-06-27 (1:5 only).\nProduced by Tom Dowd.\n2CD: Polydor 314 5
EXTD=17 294-2 (1992-10-20), UPC 731451729423.
EXTT0=(Allman/Allman/Betts/Oakley/Johanson/Trucks)
EXTT1=(Gregg Allman)
EXTT2=(Donovan Leitch/Allman/Allman/Betts/Oakley/Johanson/Trucks)
EXTT3=(Elvin Bishop)
PLAYORDER=
